<?xml version="1.0" encoding="UTF-8" standalone="no"?>
<svg width="437px" height="502px" viewBox="0 0 437 502" version="1.1" xmlns="http://www.w3.org/2000/svg" xmlns:xlink="http://www.w3.org/1999/xlink" xmlns:sketch="http://www.bohemiancoding.com/sketch/ns">
    <!-- Generator: Sketch 3.0.4 (8053) - http://www.bohemiancoding.com/sketch -->
    <title>node-js</title>
    <desc>Created with Sketch.</desc>
    <defs></defs>
    <g id="Page-1" stroke="none" stroke-width="1" fill="none" fill-rule="evenodd" sketch:type="MSPage">
        <g id="node-js" sketch:type="MSLayerGroup" transform="translate(1.000000, 1.000000)">
            <polygon id="Polygon-6" stroke="#979797" fill="#303030" sketch:type="MSShapeGroup" points="218 0 434.506351 125 434.506351 375 218 500 1.49364905 375 1.49364905 125 "></polygon>
            <g id="logo" transform="translate(0.000000, 125.000000)" sketch:type="MSShapeGroup">
                <path d="M217,118.213662 L0.972441803,0.160023056 L-0.341796875,249.618679 L217,374.937926 L217,118.213662 Z" id="background" fill="#F7DF1E"></path>
                <path d="M73.6208386,243.021732 C76.8033456,251.559383 79.7007057,258.902947 86.6953443,263.031612 C93.4000476,266.95411 97.6358874,266.339749 97.6698357,254.399218 L97.900705,173.210862 L118.258424,184.618459 L118.066221,266.361051 C118.007914,291.162568 105.587129,295.376308 87.5041587,284.839258 C71.1728915,275.103519 61.7298468,259.514825 56.9644841,244.712477" id="j" fill="#000000"></path>
                <path d="M145.753194,281.99432 C150.11197,292.76732 155.786322,302.003101 165.842771,307.354629 C174.297461,311.796508 179.693042,309.612988 179.699106,302.732217 C179.706383,294.475796 174.173884,288.678006 164.85652,278.979369 L159.763415,273.704324 C145.064864,258.444103 135.325881,243.881866 135.363753,224.348315 C135.398635,206.35787 147.058001,198.910816 165.235064,208.515228 C178.17662,215.222141 187.479123,225.313182 194.160699,242.643123 L178.292367,246.596846 C174.807113,237.398862 171.028412,232.514451 165.209343,229.477311 C159.244497,226.340604 155.455074,228.802342 155.446558,234.638404 C155.436037,241.849216 159.216521,246.776411 167.943733,255.841323 L173.035526,261.078545 C190.353992,278.767661 200.10655,292.653236 200.098513,312.800683 C200.089858,334.500381 185.648655,339.023722 166.254493,328.894994 C147.297395,318.722264 135.068606,301.379911 129.121091,284.193726" id="s" fill="#000000"></path>
            </g>
        </g>
    </g>
</svg>